<svg xmlns="http://www.w3.org/2000/svg" viewBox="0 0 98 96" fill="white">
  <path fill-rule="evenodd" clip-rule="evenodd" d="M48.854 0C21.839 0 0 22 0 49.217c0 21.756 13.993 40.172 33.405 46.69 2.427.49 3.316-1.059 3.316-2.362 0-1.141-.08-5.052-.08-9.127-13.59 2.926-16.42-5.884-16.42-5.884-2.064-5.541-5.141-7.017-5.141-7.017-4.148-2.927.329-2.927.329-2.927 4.596.326 7.024 4.817 7.024 4.817 4.148 7.017 10.862 4.981 13.492 3.805.414-2.927 1.651-4.981 2.966-6.127-10.862-1.229-22.316-5.541-22.316-24.615 0-5.457 1.897-9.924 4.99-13.411-.496-1.228-2.161-6.377.482-13.244 0 0 4.063-1.308 13.25 5.047 3.847-1.075 7.99-1.613 12.13-1.633 4.14.02 8.283.558 12.148 1.633 9.168-6.355 13.23-5.047 13.23-5.047 2.644 6.867.979 12.016.483 13.244 3.093 3.487 4.99 7.954 4.99 13.411 0 19.074-11.454 23.386-22.4 24.615 1.651 1.47 3.15 4.39 3.15 8.843 0 6.457-.082 11.637-.082 13.245 0 1.305.889 2.854 3.316 2.362C84.007 89.389 98 70.973 98 49.217 98 22 76.161 0 48.854 0z"/>
</svg>
